%TF.GenerationSoftware,Altium Limited,Altium Designer,25.8.1 (18)*%
G04 Layer_Physical_Order=1*
G04 Layer_Color=255*
%FSLAX45Y45*%
%MOMM*%
%TF.SameCoordinates,76DCEA97-4B54-4C89-B6FC-6677598EF636*%
%TF.FilePolarity,Positive*%
%TF.FileFunction,Copper,L1,Top,Signal*%
%TF.Part,Single*%
G01*
G75*
%TA.AperFunction,ConnectorPad*%
%ADD10R,1.49860X0.88900*%
%ADD11R,0.88900X1.49860*%
%TA.AperFunction,BGAPad,CuDef*%
%ADD12R,0.88900X0.88900*%
%TA.AperFunction,SMDPad,CuDef*%
%ADD13R,1.40000X2.10000*%
%ADD14R,1.20000X0.85000*%
%ADD15R,1.55000X1.45000*%
%ADD16R,1.45000X1.55000*%
%ADD17R,1.50822X1.40574*%
%TA.AperFunction,ConnectorPad*%
%ADD18R,0.40000X1.40000*%
%ADD19R,2.30000X1.90000*%
%ADD20R,1.80000X1.90000*%
%TA.AperFunction,SMDPad,CuDef*%
%ADD21R,0.80000X0.70000*%
%ADD22R,1.30606X1.50981*%
%ADD23R,1.20000X3.20000*%
%TA.AperFunction,Conductor*%
%ADD24C,0.25400*%
%TA.AperFunction,ComponentPad*%
%ADD25C,1.60000*%
G04:AMPARAMS|DCode=26|XSize=1.6mm|YSize=1.6mm|CornerRadius=0.4mm|HoleSize=0mm|Usage=FLASHONLY|Rotation=270.000|XOffset=0mm|YOffset=0mm|HoleType=Round|Shape=RoundedRectangle|*
%AMROUNDEDRECTD26*
21,1,1.60000,0.80000,0,0,270.0*
21,1,0.80000,1.60000,0,0,270.0*
1,1,0.80000,-0.40000,-0.40000*
1,1,0.80000,-0.40000,0.40000*
1,1,0.80000,0.40000,0.40000*
1,1,0.80000,0.40000,-0.40000*
%
%ADD26ROUNDEDRECTD26*%
%TA.AperFunction,ViaPad*%
%ADD27C,1.27000*%
D10*
X3288538Y8341614D02*
D03*
Y8214614D02*
D03*
Y8087614D02*
D03*
Y7960614D02*
D03*
Y7833614D02*
D03*
Y7706614D02*
D03*
Y7579614D02*
D03*
Y7452614D02*
D03*
Y7325614D02*
D03*
Y7198614D02*
D03*
Y7071614D02*
D03*
Y6944614D02*
D03*
Y6817614D02*
D03*
Y6690614D02*
D03*
X5038598D02*
D03*
Y6817614D02*
D03*
Y6944614D02*
D03*
Y7071614D02*
D03*
Y7198614D02*
D03*
Y7325614D02*
D03*
Y7452614D02*
D03*
Y7579614D02*
D03*
Y7706614D02*
D03*
Y7833614D02*
D03*
Y7960614D02*
D03*
Y8087614D02*
D03*
Y8214614D02*
D03*
Y8341614D02*
D03*
D11*
X3592068Y6565519D02*
D03*
X3719068D02*
D03*
X3846068D02*
D03*
X3973068D02*
D03*
X4100068D02*
D03*
X4227068D02*
D03*
X4354068D02*
D03*
X4481068D02*
D03*
X4608068D02*
D03*
X4735068D02*
D03*
D12*
X3873500Y7709408D02*
D03*
Y7569454D02*
D03*
Y7429500D02*
D03*
X4013454D02*
D03*
X4153408D02*
D03*
Y7569454D02*
D03*
Y7709408D02*
D03*
X4013454D02*
D03*
Y7569454D02*
D03*
D13*
X3318300Y3355000D02*
D03*
X4546458Y3342800D02*
D03*
X4996458D02*
D03*
X4546458Y4252800D02*
D03*
X4996458D02*
D03*
X3768300Y3355000D02*
D03*
X3318300Y4265000D02*
D03*
X3768300D02*
D03*
D14*
X3845400Y5487800D02*
D03*
Y5257800D02*
D03*
Y5027800D02*
D03*
D15*
X3314700Y2787900D02*
D03*
X5003800Y2775200D02*
D03*
X4165600Y6096000D02*
D03*
Y5906000D02*
D03*
X5003800Y2965200D02*
D03*
X3314700Y2977900D02*
D03*
D16*
X4502327Y6135590D02*
D03*
X4057900Y3619500D02*
D03*
X4247900D02*
D03*
X4692327Y6135590D02*
D03*
D17*
X3835400Y6087024D02*
D03*
X3517900D02*
D03*
X3530600Y5490124D02*
D03*
Y5304876D02*
D03*
X3517900Y5901776D02*
D03*
X3835400D02*
D03*
D18*
X4270900Y2977400D02*
D03*
X4205900D02*
D03*
X4140900D02*
D03*
X4075900D02*
D03*
X4010900D02*
D03*
D19*
X3765900Y2692400D02*
D03*
X4515900D02*
D03*
D20*
X4025900D02*
D03*
X4255900D02*
D03*
D21*
X3263900Y5091500D02*
D03*
Y4941500D02*
D03*
D22*
X4263208Y3937000D02*
D03*
X4067992D02*
D03*
X4512492Y5854700D02*
D03*
X4707708D02*
D03*
X3793308Y4673600D02*
D03*
X3598092D02*
D03*
D23*
X4470400Y5257800D02*
D03*
D24*
X3517900Y6087024D02*
X3835400D01*
X4156624D01*
X4165600Y6096000D01*
X4279900D01*
X4319490Y6135590D01*
X4502327D01*
X3530600Y5490124D02*
X3843076D01*
X3845400Y5487800D01*
X4255900Y2692400D02*
X4515900D01*
X4025900D02*
X4255900D01*
X3765900D02*
X4025900D01*
X4515900D02*
X4724400D01*
X4749800Y2717800D01*
Y2857500D01*
X3543300Y2707279D02*
Y2857500D01*
Y2707279D02*
X3558179Y2692400D01*
X3765900D01*
X4749800Y2857500D02*
X4832100Y2775200D01*
X5003800D01*
X3314700Y2787900D02*
X3469216D01*
X3538816Y2857500D01*
X3543300D01*
X3177200Y3355000D02*
X3318300D01*
X3149600Y3327400D02*
X3177200Y3355000D01*
X3149600Y2819400D02*
Y3327400D01*
Y2819400D02*
X3181100Y2787900D01*
X3314700D01*
X4546458Y3342800D02*
X4709000D01*
X4749800Y3302000D01*
Y2857500D02*
Y3302000D01*
X3263900Y5091500D02*
Y5397500D01*
X3352800Y5486400D01*
X3526876D01*
X4270900Y2977400D02*
Y3077100D01*
X4292600Y3098800D01*
X4620621D01*
X4635500Y3083921D01*
Y2882900D02*
Y3083921D01*
Y2882900D02*
X4660900Y2857500D01*
X4749800D01*
X3505200Y5715000D02*
X3519892Y5700308D01*
X4343400Y5994400D02*
X4470400D01*
X4495800Y6019800D01*
Y6129063D01*
X4502327Y6135590D01*
X3873500Y7709408D02*
X4013454D01*
X4153408D01*
Y7569454D02*
Y7709408D01*
Y7429500D02*
Y7569454D01*
X4013454Y7429500D02*
Y7569454D01*
X3873500Y7429500D02*
Y7569454D01*
Y7429500D02*
X4013454D01*
X4153408D01*
X4152900Y7709916D02*
Y7874000D01*
Y7709916D02*
X4153408Y7709408D01*
X2740914Y8341614D02*
X3288538D01*
X2654300Y8255000D02*
X2740914Y8341614D01*
X2654300Y4381500D02*
Y8255000D01*
Y4381500D02*
X2895600Y4140200D01*
X3592068Y6565519D02*
Y6678021D01*
X3632347Y6718300D01*
X3661584D01*
X3721100Y6777816D01*
Y7573184D01*
X3454400Y7839884D02*
X3721100Y7573184D01*
X3288538Y8341614D02*
X3431286D01*
X3454400Y8318500D01*
Y7839884D02*
Y8318500D01*
X5038598Y8341614D02*
X5399786D01*
X5435600Y8305800D01*
Y7442200D02*
Y8305800D01*
X4762500Y7581900D02*
X5036312D01*
X5038598Y7579614D01*
X3517900Y5495376D02*
X3526876Y5486400D01*
X3517900Y5495376D02*
Y5700308D01*
X4150200Y3342800D02*
X4546458D01*
X4057900Y3435100D02*
X4150200Y3342800D01*
X4057900Y3435100D02*
Y3619500D01*
X4067992Y3937000D02*
Y3947187D01*
X4165600Y4044796D01*
Y5156200D01*
X4064000Y5257800D02*
X4165600Y5156200D01*
X3784600Y3733800D02*
X3821396Y3770596D01*
X4247900D01*
Y3921692D01*
X4263208Y3937000D02*
Y4631508D01*
X4247900Y3921692D02*
X4263208Y3937000D01*
X4247900Y3619500D02*
Y3770596D01*
X5041900Y4533900D02*
X5435600Y4140200D01*
X5041900Y4533900D02*
Y4914900D01*
X4711700Y5600700D02*
Y5850708D01*
X4707708Y5854700D02*
X4711700Y5850708D01*
X4354068Y6565519D02*
X4356100Y6563487D01*
Y6375400D02*
Y6563487D01*
X4227068Y6565519D02*
X4229100Y6567551D01*
Y6731000D01*
X4449318Y6597269D02*
X4481068Y6565519D01*
X4449318Y6597269D02*
Y6713982D01*
X4432300Y6731000D02*
X4449318Y6713982D01*
X4584700Y6542151D02*
X4608068Y6565519D01*
X4584700Y6375400D02*
Y6542151D01*
X4728230Y6572357D02*
X4735068Y6565519D01*
X4728230Y6572357D02*
Y6663670D01*
X4660900Y6731000D02*
X4728230Y6663670D01*
X4660900Y6731000D02*
Y6731000D01*
X5023612Y6832600D02*
X5038598Y6817614D01*
X4914900Y6832600D02*
X5023612D01*
X4864100Y6781800D02*
X4914900Y6832600D01*
X4864100Y6756400D02*
Y6781800D01*
X5036312Y6946900D02*
X5038598Y6944614D01*
X4864100Y6946900D02*
X5036312D01*
Y7073900D02*
X5038598Y7071614D01*
X4749800Y7073900D02*
X5036312D01*
Y7200900D02*
X5038598Y7198614D01*
X4864100Y7200900D02*
X5036312D01*
Y7327900D02*
X5038598Y7325614D01*
X4762500Y7327900D02*
X5036312D01*
Y7454900D02*
X5038598Y7452614D01*
X4864100Y7454900D02*
X5036312D01*
Y7708900D02*
X5038598Y7706614D01*
X4864100Y7708900D02*
X5036312D01*
X5156200Y6705600D02*
X5435600Y6426200D01*
X5156200Y6705600D02*
Y7818735D01*
X5141321Y7833614D02*
X5156200Y7818735D01*
X5038598Y7833614D02*
X5141321D01*
X5207000Y6908800D02*
X5435600Y6680200D01*
X5207000Y6908800D02*
Y7945735D01*
X5192121Y7960614D02*
X5207000Y7945735D01*
X5038598Y7960614D02*
X5192121D01*
X5257800Y7112000D02*
X5435600Y6934200D01*
X5257800Y7112000D02*
Y8072735D01*
X5242921Y8087614D02*
X5257800Y8072735D01*
X5038598Y8087614D02*
X5242921D01*
X5038598Y8214614D02*
X5247386D01*
X5308600Y8153400D01*
Y7315200D02*
Y8153400D01*
Y7315200D02*
X5435600Y7188200D01*
X4100068Y6565519D02*
Y6669532D01*
X4038600Y6731000D02*
X4100068Y6669532D01*
X3941318Y6533769D02*
X3973068Y6565519D01*
X3941318Y6430518D02*
Y6533769D01*
X3860800Y6350000D02*
X3941318Y6430518D01*
X3835400Y6576187D02*
Y6731000D01*
Y6576187D02*
X3846068Y6565519D01*
X3687318Y6533769D02*
X3719068Y6565519D01*
X3687318Y6455918D02*
Y6533769D01*
X3581400Y6350000D02*
X3687318Y6455918D01*
X2777500Y7324100D02*
X2895600Y7442200D01*
X2777500Y6123281D02*
Y7324100D01*
Y6123281D02*
X2864481Y6036300D01*
X2944519D01*
X3079043Y5901776D01*
X3517900D01*
X2994914Y8214614D02*
X3288538D01*
X2895600Y7442200D02*
Y8115300D01*
X2994914Y8214614D01*
X4279400Y5906000D02*
X4330700Y5854700D01*
X4165600Y5906000D02*
X4279400D01*
X4330700Y5854700D02*
X4512492D01*
X4161375Y5901776D02*
X4165600Y5906000D01*
X3835400Y5901776D02*
X4161375D01*
X4165600Y5359400D02*
Y5906000D01*
X4064000Y5257800D02*
X4165600Y5359400D01*
X3845400Y5257800D02*
X4064000D01*
X3517900Y5901776D02*
X3835400D01*
X3479800Y6819900D02*
X3619500D01*
X3382264Y6722364D02*
X3479800Y6819900D01*
X3320288Y6722364D02*
X3382264D01*
X3288538Y6690614D02*
X3320288Y6722364D01*
X3382571Y6849364D02*
X3479968Y6946761D01*
X3320288Y6849364D02*
X3382571D01*
X3288538Y6817614D02*
X3320288Y6849364D01*
X3463423Y7073900D02*
X3619500D01*
X3401568Y7012045D02*
X3463423Y7073900D01*
X3401568Y7011382D02*
Y7012045D01*
X3379250Y6989064D02*
X3401568Y7011382D01*
X3363468Y6989064D02*
X3379250D01*
X3319018Y6944614D02*
X3363468Y6989064D01*
X3288538Y6944614D02*
X3319018D01*
X3288538Y7071614D02*
X3320288Y7103364D01*
X3394964D02*
X3479800Y7188200D01*
X3320288Y7103364D02*
X3394964D01*
X3437930Y7289800D02*
X3619500D01*
X3422944Y7274814D02*
X3437930Y7289800D01*
X3422730Y7274814D02*
X3422944D01*
X3378280Y7230364D02*
X3422730Y7274814D01*
X3320288Y7230364D02*
X3378280D01*
X3288538Y7198614D02*
X3320288Y7230364D01*
X3467688Y7391400D02*
X3479800D01*
X3401902Y7325614D02*
X3467688Y7391400D01*
X3288538Y7325614D02*
X3401902D01*
X3475816Y7531100D02*
X3594100D01*
X3397330Y7452614D02*
X3475816Y7531100D01*
X3288538Y7452614D02*
X3397330D01*
X3388614Y7579614D02*
X3479800Y7670800D01*
X3288538Y7579614D02*
X3388614D01*
X3286252Y7708900D02*
X3288538Y7706614D01*
X3189879Y7708900D02*
X3286252D01*
X3175000Y7694021D02*
X3189879Y7708900D01*
X3175000Y6705600D02*
Y7694021D01*
X2895600Y6426200D02*
X3175000Y6705600D01*
X2895600Y6680200D02*
X3124200Y6908800D01*
Y7797800D01*
X3022600Y7315200D02*
Y8026400D01*
X2895600Y6934200D02*
X3073400Y7112000D01*
Y7924800D01*
X2895600Y7188200D02*
X3022600Y7315200D01*
X3160014Y7833614D02*
X3288538D01*
X3124200Y7797800D02*
X3160014Y7833614D01*
X3286252Y7962900D02*
X3288538Y7960614D01*
X3111500Y7962900D02*
X3286252D01*
X3073400Y7924800D02*
X3111500Y7962900D01*
X3286252Y8089900D02*
X3288538Y8087614D01*
X3086100Y8089900D02*
X3286252D01*
X3022600Y8026400D02*
X3086100Y8089900D01*
X5038598Y6690614D02*
X5041900Y6687312D01*
Y4914900D02*
Y6687312D01*
X4927600Y4800600D02*
X5041900Y4914900D01*
X4432300Y4800600D02*
X4927600D01*
X4263208Y4631508D02*
X4432300Y4800600D01*
X3784600Y3371300D02*
Y3733800D01*
X3768300Y3355000D02*
X3784600Y3371300D01*
X4775200Y3822700D02*
X4914900D01*
X4978400Y3759200D01*
Y3360858D02*
Y3759200D01*
Y3360858D02*
X4996458Y3342800D01*
X4012050Y3250050D02*
X4013200Y3251200D01*
X4012050Y2978550D02*
Y3250050D01*
X4010900Y2977400D02*
X4012050Y2978550D01*
X3793308Y4673600D02*
X4013200D01*
X3797300Y4826000D02*
X3845400Y4874100D01*
Y5027800D01*
X4692327Y6135590D02*
X4707708Y6120210D01*
Y5854700D02*
Y6120210D01*
X3793308Y4673600D02*
X3797300Y4677592D01*
Y4826000D01*
X3771900Y4851400D02*
X3797300Y4826000D01*
X3594100Y4851400D02*
X3771900D01*
X3591921Y4849221D02*
X3594100Y4851400D01*
X3570879Y4849221D02*
X3591921D01*
X3530600Y4889500D02*
X3570879Y4849221D01*
X3530600Y4889500D02*
Y5304876D01*
X3302000Y4673600D02*
X3598092D01*
X3263900Y4711700D02*
X3302000Y4673600D01*
X3263900Y4711700D02*
Y4941500D01*
X4996458Y3342800D02*
X5003800Y3335458D01*
Y2965200D02*
Y3335458D01*
X3768300Y3196800D02*
Y3355000D01*
X3733800Y3162300D02*
X3768300Y3196800D01*
X3365500Y3162300D02*
X3733800D01*
X3314700Y3111500D02*
X3365500Y3162300D01*
X3314700Y2977900D02*
Y3111500D01*
D25*
X2895600Y4140200D02*
D03*
X5435600Y5918200D02*
D03*
Y4648200D02*
D03*
Y5156200D02*
D03*
Y4902200D02*
D03*
Y5410200D02*
D03*
Y5664200D02*
D03*
Y6426200D02*
D03*
Y6934200D02*
D03*
Y7188200D02*
D03*
Y6680200D02*
D03*
Y6172200D02*
D03*
Y3632200D02*
D03*
Y4140200D02*
D03*
Y3886200D02*
D03*
Y4394200D02*
D03*
Y3124200D02*
D03*
Y2870200D02*
D03*
Y3378200D02*
D03*
X2895600Y4648200D02*
D03*
Y5156200D02*
D03*
Y4902200D02*
D03*
Y5410200D02*
D03*
Y5664200D02*
D03*
Y5918200D02*
D03*
Y6426200D02*
D03*
Y6934200D02*
D03*
Y7188200D02*
D03*
Y6680200D02*
D03*
Y6172200D02*
D03*
Y3632200D02*
D03*
Y3886200D02*
D03*
Y4394200D02*
D03*
Y3124200D02*
D03*
Y2870200D02*
D03*
Y3378200D02*
D03*
D26*
X5435600Y7442200D02*
D03*
X2895600D02*
D03*
D27*
X4749800Y2857500D02*
D03*
X3519892Y5700308D02*
D03*
X4343400Y5994400D02*
D03*
X4152900Y7874000D02*
D03*
X4762500Y7581900D02*
D03*
X3543300Y2857500D02*
D03*
X4711700Y5600700D02*
D03*
X4660900Y6731000D02*
D03*
X4584700Y6375400D02*
D03*
X4432300Y6731000D02*
D03*
X4356100Y6375400D02*
D03*
X4229100Y6731000D02*
D03*
X4864100Y6756400D02*
D03*
Y6946900D02*
D03*
X4749800Y7073900D02*
D03*
X4864100Y7200900D02*
D03*
X4762500Y7327900D02*
D03*
X4864100Y7454900D02*
D03*
Y7708900D02*
D03*
X4038600Y6731000D02*
D03*
X3860800Y6350000D02*
D03*
X3835400Y6731000D02*
D03*
X3581400Y6350000D02*
D03*
X3479968Y6946761D02*
D03*
X3619500Y6819900D02*
D03*
Y7073900D02*
D03*
X3479800Y7188200D02*
D03*
X3619500Y7289800D02*
D03*
X3479800Y7391400D02*
D03*
X3594100Y7531100D02*
D03*
X3479800Y7670800D02*
D03*
X4775200Y3822700D02*
D03*
X4013200Y4673600D02*
D03*
Y3251200D02*
D03*
%TF.MD5,d0017683fd1666d369f234ae22067f0a*%
M02*
