%TF.GenerationSoftware,Altium Limited,Altium Designer,25.8.1 (18)*%
G04 Layer_Color=0*
%FSLAX45Y45*%
%MOMM*%
%TF.SameCoordinates,76DCEA97-4B54-4C89-B6FC-6677598EF636*%
%TF.FilePolarity,Positive*%
%TF.FileFunction,Plated,1,4,PTH,Drill*%
%TF.Part,Single*%
G01*
G75*
%TA.AperFunction,ComponentDrill*%
%ADD52C,1.10000*%
%TA.AperFunction,ViaDrill,NotFilled*%
%ADD53C,0.71120*%
D52*
X2895600Y4140200D02*
D03*
X5435600Y7442200D02*
D03*
Y5918200D02*
D03*
Y4648200D02*
D03*
Y5156200D02*
D03*
Y4902200D02*
D03*
Y5410200D02*
D03*
Y5664200D02*
D03*
Y6426200D02*
D03*
Y6934200D02*
D03*
Y7188200D02*
D03*
Y6680200D02*
D03*
Y6172200D02*
D03*
Y3632200D02*
D03*
Y4140200D02*
D03*
Y3886200D02*
D03*
Y4394200D02*
D03*
Y3124200D02*
D03*
Y2870200D02*
D03*
Y3378200D02*
D03*
X2895600Y7442200D02*
D03*
Y4648200D02*
D03*
Y5156200D02*
D03*
Y4902200D02*
D03*
Y5410200D02*
D03*
Y5664200D02*
D03*
Y5918200D02*
D03*
Y6426200D02*
D03*
Y6934200D02*
D03*
Y7188200D02*
D03*
Y6680200D02*
D03*
Y6172200D02*
D03*
Y3632200D02*
D03*
Y3886200D02*
D03*
Y4394200D02*
D03*
Y3124200D02*
D03*
Y2870200D02*
D03*
Y3378200D02*
D03*
D53*
X4749800Y2857500D02*
D03*
X3519892Y5700308D02*
D03*
X4343400Y5994400D02*
D03*
X4152900Y7874000D02*
D03*
X4762500Y7581900D02*
D03*
X3543300Y2857500D02*
D03*
X4711700Y5600700D02*
D03*
X4660900Y6731000D02*
D03*
X4584700Y6375400D02*
D03*
X4432300Y6731000D02*
D03*
X4356100Y6375400D02*
D03*
X4229100Y6731000D02*
D03*
X4864100Y6756400D02*
D03*
Y6946900D02*
D03*
X4749800Y7073900D02*
D03*
X4864100Y7200900D02*
D03*
X4762500Y7327900D02*
D03*
X4864100Y7454900D02*
D03*
Y7708900D02*
D03*
X4038600Y6731000D02*
D03*
X3860800Y6350000D02*
D03*
X3835400Y6731000D02*
D03*
X3581400Y6350000D02*
D03*
X3479968Y6946761D02*
D03*
X3619500Y6819900D02*
D03*
Y7073900D02*
D03*
X3479800Y7188200D02*
D03*
X3619500Y7289800D02*
D03*
X3479800Y7391400D02*
D03*
X3594100Y7531100D02*
D03*
X3479800Y7670800D02*
D03*
X4775200Y3822700D02*
D03*
X4013200Y4673600D02*
D03*
Y3251200D02*
D03*
%TF.MD5,7980cb98c4b499ff061900221cbcf92a*%
M02*
