%TF.GenerationSoftware,Altium Limited,Altium Designer,25.8.1 (18)*%
G04 Layer_Physical_Order=3*
G04 Layer_Color=128*
%FSLAX45Y45*%
%MOMM*%
%TF.SameCoordinates,76DCEA97-4B54-4C89-B6FC-6677598EF636*%
%TF.FilePolarity,Negative*%
%TF.FileFunction,Copper,L3,Inr,Plane*%
%TF.Part,Single*%
G01*
G75*
%TA.AperFunction,NonConductor*%
%ADD28C,1.01600*%
%TA.AperFunction,ComponentPad*%
G04:AMPARAMS|DCode=29|XSize=2.624mm|YSize=2.624mm|CornerRadius=0mm|HoleSize=0mm|Usage=FLASHONLY|Rotation=0.000|XOffset=0mm|YOffset=0mm|HoleType=Round|Shape=Relief|Width=0.254mm|Gap=0.254mm|Entries=4|*
%AMTHD29*
7,0,0,2.62400,2.11600,0.25400,45*
%
%ADD29THD29*%
%ADD30C,2.11600*%
%TA.AperFunction,ViaPad*%
G04:AMPARAMS|DCode=31|XSize=2.2352mm|YSize=2.2352mm|CornerRadius=0mm|HoleSize=0mm|Usage=FLASHONLY|Rotation=0.000|XOffset=0mm|YOffset=0mm|HoleType=Round|Shape=Relief|Width=0.254mm|Gap=0.254mm|Entries=4|*
%AMTHD31*
7,0,0,2.23520,1.72720,0.25400,45*
%
%ADD31THD31*%
%ADD32C,1.72720*%
%TA.AperFunction,NonConductor*%
%ADD33C,0.76200*%
D28*
X2540000Y2540000D02*
Y8534400D01*
X5816600D01*
Y2540000D02*
Y8534400D01*
X2540000Y2540000D02*
X5816600D01*
D29*
X2895600Y7188200D02*
D03*
D30*
Y4140200D02*
D03*
X5435600Y7442200D02*
D03*
Y5918200D02*
D03*
Y4648200D02*
D03*
Y5156200D02*
D03*
Y4902200D02*
D03*
Y5410200D02*
D03*
Y5664200D02*
D03*
Y6426200D02*
D03*
Y6934200D02*
D03*
Y7188200D02*
D03*
Y6680200D02*
D03*
Y6172200D02*
D03*
Y3632200D02*
D03*
Y4140200D02*
D03*
Y3886200D02*
D03*
Y4394200D02*
D03*
Y3124200D02*
D03*
Y2870200D02*
D03*
Y3378200D02*
D03*
X2895600Y7442200D02*
D03*
Y4648200D02*
D03*
Y5156200D02*
D03*
Y4902200D02*
D03*
Y5410200D02*
D03*
Y5664200D02*
D03*
Y5918200D02*
D03*
Y6426200D02*
D03*
Y6934200D02*
D03*
Y6680200D02*
D03*
Y6172200D02*
D03*
Y3632200D02*
D03*
Y3886200D02*
D03*
Y4394200D02*
D03*
Y3124200D02*
D03*
Y2870200D02*
D03*
Y3378200D02*
D03*
D31*
X4711700Y5600700D02*
D03*
X4775200Y3822700D02*
D03*
X4013200Y4673600D02*
D03*
Y3251200D02*
D03*
D32*
X4749800Y2857500D02*
D03*
X3519892Y5700308D02*
D03*
X4343400Y5994400D02*
D03*
X4152900Y7874000D02*
D03*
X4762500Y7581900D02*
D03*
X3543300Y2857500D02*
D03*
X4660900Y6731000D02*
D03*
X4584700Y6375400D02*
D03*
X4432300Y6731000D02*
D03*
X4356100Y6375400D02*
D03*
X4229100Y6731000D02*
D03*
X4864100Y6756400D02*
D03*
Y6946900D02*
D03*
X4749800Y7073900D02*
D03*
X4864100Y7200900D02*
D03*
X4762500Y7327900D02*
D03*
X4864100Y7454900D02*
D03*
Y7708900D02*
D03*
X4038600Y6731000D02*
D03*
X3860800Y6350000D02*
D03*
X3835400Y6731000D02*
D03*
X3581400Y6350000D02*
D03*
X3479968Y6946761D02*
D03*
X3619500Y6819900D02*
D03*
Y7073900D02*
D03*
X3479800Y7188200D02*
D03*
X3619500Y7289800D02*
D03*
X3479800Y7391400D02*
D03*
X3594100Y7531100D02*
D03*
X3479800Y7670800D02*
D03*
D33*
X4914900Y3733800D02*
Y3898900D01*
X4851400Y3962400D02*
X4914900Y3898900D01*
X4851400Y3670300D02*
X4914900Y3733800D01*
X4851400Y3962400D02*
Y5664200D01*
X3035300Y7315200D02*
X3238500Y7112000D01*
Y6464300D02*
Y7112000D01*
Y6464300D02*
X3797300Y5905500D01*
X4686300D01*
X4851400Y5740400D01*
Y5664200D02*
Y5740400D01*
X2730500Y7239000D02*
X2806700Y7315200D01*
X2730500Y7124700D02*
Y7239000D01*
Y7124700D02*
X2794000Y7061200D01*
X3009900D01*
X3111500Y6959600D01*
Y6350000D02*
Y6959600D01*
Y6350000D02*
X3733800Y5727700D01*
X4508500D01*
X4572000Y5664200D01*
Y5651500D02*
Y5664200D01*
X2806700Y7315200D02*
X3035300D01*
X4572000Y4711700D02*
X4622800Y4660900D01*
Y3721100D02*
Y4660900D01*
Y3721100D02*
X4673600Y3670300D01*
X4851400D01*
X4572000Y4711700D02*
Y5651500D01*
X3924300Y3162300D02*
Y4559300D01*
Y3162300D02*
X3962400Y3124200D01*
X4114800D01*
X4140200Y3149600D01*
Y4749800D01*
X4076700Y4813300D02*
X4140200Y4749800D01*
X3975100Y4813300D02*
X4076700D01*
X3924300Y4762500D02*
X3975100Y4813300D01*
X3924300Y4559300D02*
Y4762500D01*
%TF.MD5,207afbd5451d4b3dbd5b1f85bcfce366*%
M02*
