%TF.GenerationSoftware,Altium Limited,Altium Designer,25.8.1 (18)*%
G04 Layer_Color=65535*
%FSLAX45Y45*%
%MOMM*%
%TF.SameCoordinates,76DCEA97-4B54-4C89-B6FC-6677598EF636*%
%TF.FilePolarity,Positive*%
%TF.FileFunction,Legend,Top*%
%TF.Part,Single*%
G01*
G75*
%TA.AperFunction,NonConductor*%
%ADD34C,0.25000*%
%ADD35C,0.20000*%
%ADD36C,0.15240*%
%ADD37C,0.25400*%
%ADD38C,0.12700*%
%ADD39C,0.07620*%
D34*
X3278900Y5184000D02*
G03*
X3278900Y5184000I-12500J0D01*
G01*
X4023400Y3102400D02*
G03*
X4023400Y3102400I-12500J0D01*
G01*
X5448100Y7629200D02*
G03*
X5448100Y7629200I-12500J0D01*
G01*
X2908100D02*
G03*
X2908100Y7629200I-12500J0D01*
G01*
D35*
X4556458Y3172800D02*
G03*
X4556458Y3172800I-10000J0D01*
G01*
X3328300Y3185000D02*
G03*
X3328300Y3185000I-10000J0D01*
G01*
X4002689Y4054990D02*
X4328511D01*
X4002689Y3819010D02*
X4328511D01*
X3311400Y5014000D02*
Y5019000D01*
X3216400Y5014000D02*
Y5019000D01*
X4330900Y2977400D02*
X4543900D01*
X3737900Y2417400D02*
Y2557400D01*
X4543900Y2827400D02*
Y2977400D01*
X3737900Y2827400D02*
Y2977400D01*
X4543900Y2417400D02*
Y2557400D01*
X3737900Y2977400D02*
X3950900D01*
X3737900Y2417400D02*
X4543900D01*
X5570100Y2730500D02*
Y7584200D01*
X5301100D02*
X5570100D01*
X5301100Y2730500D02*
Y7584200D01*
Y2730500D02*
X5570100D01*
X3415189Y5234589D02*
Y5560411D01*
X3646011Y5234589D02*
Y5560411D01*
X3402489Y5831489D02*
Y6157311D01*
X3633311Y5831489D02*
Y6157311D01*
X3719989Y5831489D02*
Y6157311D01*
X3950811Y5831489D02*
Y6157311D01*
X4447189Y5736710D02*
X4773011D01*
X4447189Y5972690D02*
X4773011D01*
X3532789Y4791590D02*
X3858611D01*
X3532789Y4555610D02*
X3858611D01*
X3030100Y2730500D02*
Y7584200D01*
X2761100D02*
X3030100D01*
X2761100Y2730500D02*
Y7584200D01*
Y2730500D02*
X3030100D01*
D36*
X3250438Y8419338D02*
Y9103360D01*
Y6527800D02*
X3514344D01*
X5076698D02*
Y6612890D01*
X3250438Y9103360D02*
X5076698D01*
X3250438Y6527800D02*
Y6612890D01*
X4812792Y6527800D02*
X5076698D01*
Y8419338D02*
Y9103360D01*
D37*
X3925400Y5607800D02*
X4385400D01*
Y4917800D02*
Y5607800D01*
X3925400Y4917800D02*
X4385400D01*
X3925400D02*
Y5607800D01*
D38*
X4471458Y3497800D02*
X5071458D01*
Y4097800D01*
X4471458D02*
X5071458D01*
X4471458Y3497800D02*
Y4097800D01*
X3243300Y3510000D02*
X3843300D01*
Y4110000D01*
X3243300D02*
X3843300D01*
X3243300Y3510000D02*
Y4110000D01*
X3124200Y9263355D02*
Y9199876D01*
X3136896Y9187180D01*
X3162288D01*
X3174983Y9199876D01*
Y9263355D01*
X3200375Y9187180D02*
X3225767D01*
X3213071D01*
Y9263355D01*
X3200375Y9250659D01*
X5668420Y2861744D02*
X5676883Y2870208D01*
Y2887136D01*
X5668420Y2895600D01*
X5634564D01*
X5626100Y2887136D01*
Y2870208D01*
X5634564Y2861744D01*
X5676883Y2844817D02*
X5626100D01*
Y2810961D01*
X5676883Y2794033D02*
X5626100D01*
X5643028D01*
X5676883Y2760177D01*
X5651492Y2785569D01*
X5626100Y2760177D01*
X5676883Y3136900D02*
X5626100D01*
Y3111508D01*
X5634564Y3103044D01*
X5668420D01*
X5676883Y3111508D01*
Y3136900D01*
X5634564Y3086117D02*
X5626100Y3077652D01*
Y3060725D01*
X5634564Y3052261D01*
X5668420D01*
X5676883Y3060725D01*
Y3077652D01*
X5668420Y3086117D01*
X5659956D01*
X5651492Y3077652D01*
Y3052261D01*
X5626100Y3640668D02*
Y3623740D01*
Y3632204D01*
X5676883D01*
X5668420Y3640668D01*
X5676883Y3564493D02*
Y3598348D01*
X5651492D01*
X5659956Y3581421D01*
Y3572957D01*
X5651492Y3564493D01*
X5634564D01*
X5626100Y3572957D01*
Y3589884D01*
X5634564Y3598348D01*
X5676883Y3395136D02*
X5626100D01*
Y3369744D01*
X5634564Y3361281D01*
X5668420D01*
X5676883Y3369744D01*
Y3395136D01*
X5626100Y3344353D02*
Y3327425D01*
Y3335889D01*
X5676883D01*
X5668420Y3344353D01*
Y4127508D02*
X5676883Y4119044D01*
Y4102117D01*
X5668420Y4093653D01*
X5634564D01*
X5626100Y4102117D01*
Y4119044D01*
X5634564Y4127508D01*
X5668420D01*
X5626100Y3852353D02*
Y3886208D01*
X5659956Y3852353D01*
X5668420D01*
X5676883Y3860817D01*
Y3877744D01*
X5668420Y3886208D01*
X5626100Y5431368D02*
Y5414440D01*
Y5422904D01*
X5676883D01*
X5668420Y5431368D01*
Y5389048D02*
X5676883Y5380584D01*
Y5363657D01*
X5668420Y5355193D01*
X5659956D01*
X5651492Y5363657D01*
X5643028Y5355193D01*
X5634564D01*
X5626100Y5363657D01*
Y5380584D01*
X5634564Y5389048D01*
X5643028D01*
X5651492Y5380584D01*
X5659956Y5389048D01*
X5668420D01*
X5651492Y5380584D02*
Y5363657D01*
X5626100Y5676900D02*
Y5659972D01*
Y5668436D01*
X5676883D01*
X5668420Y5676900D01*
X5634564Y5634580D02*
X5626100Y5626116D01*
Y5609188D01*
X5634564Y5600725D01*
X5668420D01*
X5676883Y5609188D01*
Y5626116D01*
X5668420Y5634580D01*
X5659956D01*
X5651492Y5626116D01*
Y5600725D01*
X5626100Y4923368D02*
Y4906440D01*
Y4914904D01*
X5676883D01*
X5668420Y4923368D01*
X5676883Y4881048D02*
Y4847193D01*
X5668420D01*
X5634564Y4881048D01*
X5626100D01*
X5676883Y5109653D02*
Y5143508D01*
X5651492D01*
X5659956Y5126581D01*
Y5118117D01*
X5651492Y5109653D01*
X5634564D01*
X5626100Y5118117D01*
Y5135044D01*
X5634564Y5143508D01*
X5626100Y4656668D02*
Y4639740D01*
Y4648204D01*
X5676883D01*
X5668420Y4656668D01*
X5676883Y4580493D02*
Y4614348D01*
X5651492D01*
X5659956Y4597421D01*
Y4588957D01*
X5651492Y4580493D01*
X5634564D01*
X5626100Y4588957D01*
Y4605884D01*
X5634564Y4614348D01*
X5626100Y4368817D02*
X5676883D01*
X5651492Y4394208D01*
Y4360353D01*
X5626100Y6925744D02*
Y6959600D01*
X5659956Y6925744D01*
X5668420D01*
X5676883Y6934208D01*
Y6951136D01*
X5668420Y6959600D01*
X5626100Y6874961D02*
Y6908817D01*
X5659956Y6874961D01*
X5668420D01*
X5676883Y6883425D01*
Y6900352D01*
X5668420Y6908817D01*
X5626108Y7183964D02*
Y7217819D01*
X5659964Y7183964D01*
X5668428D01*
X5676892Y7192428D01*
Y7209355D01*
X5668428Y7217819D01*
Y7167036D02*
X5676892Y7158572D01*
Y7141644D01*
X5668428Y7133180D01*
X5659964D01*
X5651500Y7141644D01*
Y7150108D01*
Y7141644D01*
X5643036Y7133180D01*
X5634572D01*
X5626108Y7141644D01*
Y7158572D01*
X5634572Y7167036D01*
X5626100Y6455832D02*
X5676883D01*
Y6430440D01*
X5668420Y6421976D01*
X5651492D01*
X5643028Y6430440D01*
Y6455832D01*
Y6438904D02*
X5626100Y6421976D01*
X5676883Y6405048D02*
X5626100Y6371193D01*
X5676883D02*
X5626100Y6405048D01*
X5676883Y6692900D02*
Y6659044D01*
Y6675972D01*
X5626100D01*
X5676883Y6642117D02*
X5626100Y6608261D01*
X5676883D02*
X5626100Y6642117D01*
Y6117189D02*
Y6151044D01*
X5659956Y6117189D01*
X5668420D01*
X5676883Y6125652D01*
Y6142580D01*
X5668420Y6151044D01*
X5626100Y6100261D02*
Y6083333D01*
Y6091797D01*
X5676883D01*
X5668420Y6100261D01*
Y5939368D02*
X5676883Y5947832D01*
Y5964760D01*
X5668420Y5973224D01*
X5634564D01*
X5626100Y5964760D01*
Y5947832D01*
X5634564Y5939368D01*
X5651492D01*
Y5956296D01*
X5626100Y5922440D02*
X5676883D01*
X5626100Y5888585D01*
X5676883D01*
Y5871657D02*
X5626100D01*
Y5846265D01*
X5634564Y5837801D01*
X5668420D01*
X5676883Y5846265D01*
Y5871657D01*
X5668420Y7446436D02*
X5676883Y7454900D01*
Y7471828D01*
X5668420Y7480292D01*
X5634564D01*
X5626100Y7471828D01*
Y7454900D01*
X5634564Y7446436D01*
X5651492D01*
Y7463364D01*
X5626100Y7429508D02*
X5676883D01*
X5626100Y7395653D01*
X5676883D01*
Y7378725D02*
X5626100D01*
Y7353333D01*
X5634564Y7344869D01*
X5668420D01*
X5676883Y7353333D01*
Y7378725D01*
X2654317Y2853256D02*
Y2819400D01*
X2679708D01*
X2671244Y2836328D01*
Y2844792D01*
X2679708Y2853256D01*
X2696636D01*
X2705100Y2844792D01*
Y2827864D01*
X2696636Y2819400D01*
X2654317Y2870183D02*
X2688172D01*
X2705100Y2887111D01*
X2688172Y2904039D01*
X2654317D01*
X2705100Y4330700D02*
Y4347628D01*
Y4339164D01*
X2654317D01*
X2662780Y4330700D01*
X2705100Y4406875D02*
Y4373020D01*
X2671244Y4406875D01*
X2662780D01*
X2654317Y4398412D01*
Y4381484D01*
X2662780Y4373020D01*
Y4123256D02*
X2654317Y4114792D01*
Y4097864D01*
X2662780Y4089400D01*
X2696636D01*
X2705100Y4097864D01*
Y4114792D01*
X2696636Y4123256D01*
X2679708D01*
Y4106328D01*
X2705100Y4140183D02*
X2654317D01*
X2705100Y4174039D01*
X2654317D01*
Y4190967D02*
X2705100D01*
Y4216359D01*
X2696636Y4224823D01*
X2662780D01*
X2654317Y4216359D01*
Y4190967D01*
Y3581400D02*
X2705100D01*
Y3606792D01*
X2696636Y3615256D01*
X2662780D01*
X2654317Y3606792D01*
Y3581400D01*
X2705100Y3666039D02*
Y3632183D01*
X2671244Y3666039D01*
X2662780D01*
X2654317Y3657575D01*
Y3640648D01*
X2662780Y3632183D01*
X2705100Y3822700D02*
Y3839628D01*
Y3831164D01*
X2654317D01*
X2662780Y3822700D01*
Y3865020D02*
X2654317Y3873484D01*
Y3890412D01*
X2662780Y3898875D01*
X2671244D01*
X2679708Y3890412D01*
Y3881948D01*
Y3890412D01*
X2688172Y3898875D01*
X2696636D01*
X2705100Y3890412D01*
Y3873484D01*
X2696636Y3865020D01*
X2662780Y3107256D02*
X2654317Y3098792D01*
Y3081864D01*
X2662780Y3073400D01*
X2696636D01*
X2705100Y3081864D01*
Y3098792D01*
X2696636Y3107256D01*
X2705100Y3124183D02*
X2654317D01*
X2671244Y3141111D01*
X2654317Y3158039D01*
X2705100D01*
X2654317Y3174967D02*
X2705100D01*
Y3200359D01*
X2696636Y3208823D01*
X2662780D01*
X2654317Y3200359D01*
Y3174967D01*
Y3314700D02*
X2705100D01*
Y3340092D01*
X2696636Y3348556D01*
X2662780D01*
X2654317Y3340092D01*
Y3314700D01*
X2662780Y3365483D02*
X2654317Y3373948D01*
Y3390875D01*
X2662780Y3399339D01*
X2671244D01*
X2679708Y3390875D01*
Y3382411D01*
Y3390875D01*
X2688172Y3399339D01*
X2696636D01*
X2705100Y3390875D01*
Y3373948D01*
X2696636Y3365483D01*
X2662780Y5854700D02*
X2654317Y5863164D01*
Y5880092D01*
X2662780Y5888556D01*
X2671244D01*
X2679708Y5880092D01*
Y5871628D01*
Y5880092D01*
X2688172Y5888556D01*
X2696636D01*
X2705100Y5880092D01*
Y5863164D01*
X2696636Y5854700D01*
X2705100Y5939339D02*
Y5905483D01*
X2671244Y5939339D01*
X2662780D01*
X2654317Y5930875D01*
Y5913948D01*
X2662780Y5905483D01*
Y5613400D02*
X2654317Y5621864D01*
Y5638792D01*
X2662780Y5647256D01*
X2671244D01*
X2679708Y5638792D01*
Y5630328D01*
Y5638792D01*
X2688172Y5647256D01*
X2696636D01*
X2705100Y5638792D01*
Y5621864D01*
X2696636Y5613400D01*
X2662780Y5664183D02*
X2654317Y5672648D01*
Y5689575D01*
X2662780Y5698039D01*
X2671244D01*
X2679708Y5689575D01*
Y5681111D01*
Y5689575D01*
X2688172Y5698039D01*
X2696636D01*
X2705100Y5689575D01*
Y5672648D01*
X2696636Y5664183D01*
X2705100Y5139256D02*
Y5105400D01*
X2671244Y5139256D01*
X2662780D01*
X2654317Y5130792D01*
Y5113864D01*
X2662780Y5105400D01*
X2654317Y5190039D02*
X2662780Y5173111D01*
X2679708Y5156183D01*
X2696636D01*
X2705100Y5164648D01*
Y5181575D01*
X2696636Y5190039D01*
X2688172D01*
X2679708Y5181575D01*
Y5156183D01*
X2705100Y5380556D02*
Y5346700D01*
X2671244Y5380556D01*
X2662780D01*
X2654317Y5372092D01*
Y5355164D01*
X2662780Y5346700D01*
X2654317Y5431339D02*
Y5397483D01*
X2679708D01*
X2671244Y5414411D01*
Y5422875D01*
X2679708Y5431339D01*
X2696636D01*
X2705100Y5422875D01*
Y5405948D01*
X2696636Y5397483D01*
X2705100Y4597400D02*
Y4614328D01*
Y4605864D01*
X2654317D01*
X2662780Y4597400D01*
X2705100Y4665112D02*
X2654317D01*
X2679708Y4639720D01*
Y4673575D01*
X2705100Y4872556D02*
Y4838700D01*
X2671244Y4872556D01*
X2662780D01*
X2654317Y4864092D01*
Y4847164D01*
X2662780Y4838700D01*
X2654317Y4889483D02*
Y4923339D01*
X2662780D01*
X2696636Y4889483D01*
X2705100D01*
X2662780Y6362700D02*
X2654317Y6371164D01*
Y6388092D01*
X2662780Y6396556D01*
X2671244D01*
X2679708Y6388092D01*
Y6379628D01*
Y6388092D01*
X2688172Y6396556D01*
X2696636D01*
X2705100Y6388092D01*
Y6371164D01*
X2696636Y6362700D01*
X2705100Y6438875D02*
X2654317D01*
X2679708Y6413483D01*
Y6447339D01*
X2662780Y6121400D02*
X2654317Y6129864D01*
Y6146792D01*
X2662780Y6155256D01*
X2671244D01*
X2679708Y6146792D01*
Y6138328D01*
Y6146792D01*
X2688172Y6155256D01*
X2696636D01*
X2705100Y6146792D01*
Y6129864D01*
X2696636Y6121400D01*
X2654317Y6206039D02*
Y6172183D01*
X2679708D01*
X2671244Y6189111D01*
Y6197575D01*
X2679708Y6206039D01*
X2696636D01*
X2705100Y6197575D01*
Y6180648D01*
X2696636Y6172183D01*
X2654317Y6870700D02*
X2688172D01*
X2705100Y6887628D01*
X2688172Y6904556D01*
X2654317D01*
X2705100Y6921483D02*
X2654317D01*
Y6946875D01*
X2662780Y6955339D01*
X2679708D01*
X2688172Y6946875D01*
Y6921483D01*
X2654317Y6629400D02*
X2688172D01*
X2705100Y6646328D01*
X2688172Y6663256D01*
X2654317D01*
X2705100Y6680183D02*
X2654317D01*
X2705100Y6714039D01*
X2654317D01*
Y7171256D02*
Y7137400D01*
X2705100D01*
Y7171256D01*
X2679708Y7137400D02*
Y7154328D01*
X2705100Y7188183D02*
X2654317D01*
X2705100Y7222039D01*
X2654317D01*
X2662780Y7378700D02*
X2654317Y7387164D01*
Y7404092D01*
X2662780Y7412556D01*
X2671244D01*
X2679708Y7404092D01*
Y7395628D01*
Y7404092D01*
X2688172Y7412556D01*
X2696636D01*
X2705100Y7404092D01*
Y7387164D01*
X2696636Y7378700D01*
X2654317Y7429483D02*
X2688172D01*
X2705100Y7446411D01*
X2688172Y7463339D01*
X2654317D01*
X2662780Y7480267D02*
X2654317Y7488731D01*
Y7505659D01*
X2662780Y7514123D01*
X2671244D01*
X2679708Y7505659D01*
Y7497195D01*
Y7505659D01*
X2688172Y7514123D01*
X2696636D01*
X2705100Y7505659D01*
Y7488731D01*
X2696636Y7480267D01*
X4089421Y4102112D02*
Y4178288D01*
X4127508D01*
X4140204Y4165592D01*
Y4140200D01*
X4127508Y4127504D01*
X4089421D01*
X4114812D02*
X4140204Y4102112D01*
X4165596Y4165592D02*
X4178292Y4178288D01*
X4203684D01*
X4216379Y4165592D01*
Y4152896D01*
X4203684Y4140200D01*
X4190988D01*
X4203684D01*
X4216379Y4127504D01*
Y4114808D01*
X4203684Y4102112D01*
X4178292D01*
X4165596Y4114808D01*
X4140204Y3454392D02*
X4127508Y3467088D01*
X4102117D01*
X4089421Y3454392D01*
Y3403608D01*
X4102117Y3390912D01*
X4127508D01*
X4140204Y3403608D01*
X4165596Y3454392D02*
X4178292Y3467088D01*
X4203684D01*
X4216379Y3454392D01*
Y3441696D01*
X4203684Y3429000D01*
X4216379Y3416304D01*
Y3403608D01*
X4203684Y3390912D01*
X4178292D01*
X4165596Y3403608D01*
Y3416304D01*
X4178292Y3429000D01*
X4165596Y3441696D01*
Y3454392D01*
X4178292Y3429000D02*
X4203684D01*
X3365512Y4978417D02*
X3441688D01*
Y5016504D01*
X3428992Y5029200D01*
X3378208D01*
X3365512Y5016504D01*
Y4978417D01*
X3441688Y5054592D02*
Y5079984D01*
Y5067288D01*
X3365512D01*
X3378208Y5054592D01*
X3684421Y3174988D02*
Y3111508D01*
X3697117Y3098812D01*
X3722508D01*
X3735204Y3111508D01*
Y3174988D01*
X3811379D02*
X3760596D01*
Y3136900D01*
X3785988Y3149596D01*
X3798684D01*
X3811379Y3136900D01*
Y3111508D01*
X3798684Y3098812D01*
X3773292D01*
X3760596Y3111508D01*
X3756521Y5740388D02*
Y5676908D01*
X3769216Y5664212D01*
X3794608D01*
X3807304Y5676908D01*
Y5740388D01*
X3870784Y5664212D02*
Y5740388D01*
X3832696Y5702300D01*
X3883479D01*
X5288280Y7792695D02*
Y7729216D01*
X5300976Y7716520D01*
X5326368D01*
X5339063Y7729216D01*
Y7792695D01*
X5364455Y7779999D02*
X5377151Y7792695D01*
X5402543D01*
X5415239Y7779999D01*
Y7767303D01*
X5402543Y7754608D01*
X5389847D01*
X5402543D01*
X5415239Y7741912D01*
Y7729216D01*
X5402543Y7716520D01*
X5377151D01*
X5364455Y7729216D01*
X2748280Y7792695D02*
Y7729216D01*
X2760976Y7716520D01*
X2786368D01*
X2799063Y7729216D01*
Y7792695D01*
X2875239Y7716520D02*
X2824455D01*
X2875239Y7767303D01*
Y7779999D01*
X2862543Y7792695D01*
X2837151D01*
X2824455Y7779999D01*
X3441688Y4648221D02*
X3365512D01*
Y4686308D01*
X3378208Y4699004D01*
X3403600D01*
X3416296Y4686308D01*
Y4648221D01*
Y4673612D02*
X3441688Y4699004D01*
Y4775179D02*
Y4724396D01*
X3390904Y4775179D01*
X3378208D01*
X3365512Y4762484D01*
Y4737092D01*
X3378208Y4724396D01*
X4927588Y5829317D02*
X4851412D01*
Y5867404D01*
X4864108Y5880100D01*
X4889500D01*
X4902196Y5867404D01*
Y5829317D01*
Y5854708D02*
X4927588Y5880100D01*
Y5905492D02*
Y5930884D01*
Y5918188D01*
X4851412D01*
X4864108Y5905492D01*
X4851408Y6159504D02*
X4838712Y6146808D01*
Y6121417D01*
X4851408Y6108721D01*
X4902192D01*
X4914888Y6121417D01*
Y6146808D01*
X4902192Y6159504D01*
X4838712Y6184896D02*
Y6235679D01*
X4851408D01*
X4902192Y6184896D01*
X4914888D01*
X4102104Y6311892D02*
X4089408Y6324588D01*
X4064017D01*
X4051321Y6311892D01*
Y6261108D01*
X4064017Y6248412D01*
X4089408D01*
X4102104Y6261108D01*
X4178279Y6324588D02*
X4152888Y6311892D01*
X4127496Y6286500D01*
Y6261108D01*
X4140192Y6248412D01*
X4165584D01*
X4178279Y6261108D01*
Y6273804D01*
X4165584Y6286500D01*
X4127496D01*
X3771904Y6299192D02*
X3759208Y6311888D01*
X3733817D01*
X3721121Y6299192D01*
Y6248408D01*
X3733817Y6235712D01*
X3759208D01*
X3771904Y6248408D01*
X3848079Y6311888D02*
X3797296D01*
Y6273800D01*
X3822688Y6286496D01*
X3835384D01*
X3848079Y6273800D01*
Y6248408D01*
X3835384Y6235712D01*
X3809992D01*
X3797296Y6248408D01*
X3441704Y6311892D02*
X3429008Y6324588D01*
X3403617D01*
X3390921Y6311892D01*
Y6261108D01*
X3403617Y6248412D01*
X3429008D01*
X3441704Y6261108D01*
X3505184Y6248412D02*
Y6324588D01*
X3467096Y6286500D01*
X3517879D01*
X3454404Y5714992D02*
X3441708Y5727688D01*
X3416317D01*
X3403621Y5714992D01*
Y5664208D01*
X3416317Y5651512D01*
X3441708D01*
X3454404Y5664208D01*
X3479796Y5714992D02*
X3492492Y5727688D01*
X3517884D01*
X3530579Y5714992D01*
Y5702296D01*
X3517884Y5689600D01*
X3505188D01*
X3517884D01*
X3530579Y5676904D01*
Y5664208D01*
X3517884Y5651512D01*
X3492492D01*
X3479796Y5664208D01*
X3097574Y2917404D02*
X3084878Y2904708D01*
Y2879317D01*
X3097574Y2866621D01*
X3148357D01*
X3161053Y2879317D01*
Y2904708D01*
X3148357Y2917404D01*
X3161053Y2993579D02*
Y2942796D01*
X3110270Y2993579D01*
X3097574D01*
X3084878Y2980884D01*
Y2955492D01*
X3097574Y2942796D01*
X5232960Y2930100D02*
X5245656Y2942795D01*
Y2968187D01*
X5232960Y2980883D01*
X5182177D01*
X5169481Y2968187D01*
Y2942795D01*
X5182177Y2930100D01*
X5169481Y2904708D02*
Y2879316D01*
Y2892012D01*
X5245656D01*
X5232960Y2904708D01*
X3263921Y4483088D02*
Y4406912D01*
X3302008D01*
X3314704Y4419608D01*
Y4432304D01*
X3302008Y4445000D01*
X3263921D01*
X3302008D01*
X3314704Y4457696D01*
Y4470392D01*
X3302008Y4483088D01*
X3263921D01*
X3390879Y4406912D02*
X3340096D01*
X3390879Y4457696D01*
Y4470392D01*
X3378184Y4483088D01*
X3352792D01*
X3340096Y4470392D01*
X4453974Y4496288D02*
Y4420113D01*
X4492062D01*
X4504758Y4432809D01*
Y4445504D01*
X4492062Y4458200D01*
X4453974D01*
X4492062D01*
X4504758Y4470896D01*
Y4483592D01*
X4492062Y4496288D01*
X4453974D01*
X4530150Y4420113D02*
X4555542D01*
X4542846D01*
Y4496288D01*
X4530150Y4483592D01*
D39*
X3118358Y8383913D02*
X3202997Y8299274D01*
X3118358D02*
X3202997Y8383913D01*
X3118358Y8341593D02*
X3202997D01*
X3160678Y8299274D02*
Y8383913D01*
X3746500Y8089859D02*
Y7984060D01*
X3767660Y7962900D01*
X3809979D01*
X3831139Y7984060D01*
Y8089859D01*
X3873459Y7962900D02*
X3915779D01*
X3894619D01*
Y8089859D01*
X3873459Y8068699D01*
%TF.MD5,c92b38780c174638503f4f4f8b9f6068*%
M02*
