%TF.GenerationSoftware,Altium Limited,Altium Designer,25.8.1 (18)*%
G04 Layer_Color=8421504*
%FSLAX45Y45*%
%MOMM*%
%TF.SameCoordinates,76DCEA97-4B54-4C89-B6FC-6677598EF636*%
%TF.FilePolarity,Positive*%
%TF.FileFunction,Paste,Top*%
%TF.Part,Single*%
G01*
G75*
%TA.AperFunction,ConnectorPad*%
%ADD10R,1.49860X0.88900*%
%ADD11R,0.88900X1.49860*%
%TA.AperFunction,BGAPad,CuDef*%
%ADD12R,0.88900X0.88900*%
%TA.AperFunction,SMDPad,CuDef*%
%ADD13R,1.40000X2.10000*%
%ADD14R,1.20000X0.85000*%
%ADD15R,1.55000X1.45000*%
%ADD16R,1.45000X1.55000*%
%ADD17R,1.50822X1.40574*%
%TA.AperFunction,ConnectorPad*%
%ADD18R,0.40000X1.40000*%
%ADD19R,2.30000X1.90000*%
%ADD20R,1.80000X1.90000*%
%TA.AperFunction,SMDPad,CuDef*%
%ADD21R,0.80000X0.70000*%
%ADD22R,1.30606X1.50981*%
%ADD23R,1.20000X3.20000*%
D10*
X3288538Y8341614D02*
D03*
Y8214614D02*
D03*
Y8087614D02*
D03*
Y7960614D02*
D03*
Y7833614D02*
D03*
Y7706614D02*
D03*
Y7579614D02*
D03*
Y7452614D02*
D03*
Y7325614D02*
D03*
Y7198614D02*
D03*
Y7071614D02*
D03*
Y6944614D02*
D03*
Y6817614D02*
D03*
Y6690614D02*
D03*
X5038598D02*
D03*
Y6817614D02*
D03*
Y6944614D02*
D03*
Y7071614D02*
D03*
Y7198614D02*
D03*
Y7325614D02*
D03*
Y7452614D02*
D03*
Y7579614D02*
D03*
Y7706614D02*
D03*
Y7833614D02*
D03*
Y7960614D02*
D03*
Y8087614D02*
D03*
Y8214614D02*
D03*
Y8341614D02*
D03*
D11*
X3592068Y6565519D02*
D03*
X3719068D02*
D03*
X3846068D02*
D03*
X3973068D02*
D03*
X4100068D02*
D03*
X4227068D02*
D03*
X4354068D02*
D03*
X4481068D02*
D03*
X4608068D02*
D03*
X4735068D02*
D03*
D12*
X3873500Y7709408D02*
D03*
Y7569454D02*
D03*
Y7429500D02*
D03*
X4013454D02*
D03*
X4153408D02*
D03*
Y7569454D02*
D03*
Y7709408D02*
D03*
X4013454D02*
D03*
Y7569454D02*
D03*
D13*
X3318300Y3355000D02*
D03*
X4546458Y3342800D02*
D03*
X4996458D02*
D03*
X4546458Y4252800D02*
D03*
X4996458D02*
D03*
X3768300Y3355000D02*
D03*
X3318300Y4265000D02*
D03*
X3768300D02*
D03*
D14*
X3845400Y5487800D02*
D03*
Y5257800D02*
D03*
Y5027800D02*
D03*
D15*
X3314700Y2787900D02*
D03*
X5003800Y2775200D02*
D03*
X4165600Y6096000D02*
D03*
Y5906000D02*
D03*
X5003800Y2965200D02*
D03*
X3314700Y2977900D02*
D03*
D16*
X4502327Y6135590D02*
D03*
X4057900Y3619500D02*
D03*
X4247900D02*
D03*
X4692327Y6135590D02*
D03*
D17*
X3835400Y6087024D02*
D03*
X3517900D02*
D03*
X3530600Y5490124D02*
D03*
Y5304876D02*
D03*
X3517900Y5901776D02*
D03*
X3835400D02*
D03*
D18*
X4270900Y2977400D02*
D03*
X4205900D02*
D03*
X4140900D02*
D03*
X4075900D02*
D03*
X4010900D02*
D03*
D19*
X3765900Y2692400D02*
D03*
X4515900D02*
D03*
D20*
X4025900D02*
D03*
X4255900D02*
D03*
D21*
X3263900Y5091500D02*
D03*
Y4941500D02*
D03*
D22*
X4263208Y3937000D02*
D03*
X4067992D02*
D03*
X4512492Y5854700D02*
D03*
X4707708D02*
D03*
X3793308Y4673600D02*
D03*
X3598092D02*
D03*
D23*
X4470400Y5257800D02*
D03*
%TF.MD5,c6d71f711af988c63d1dc9573583147d*%
M02*
