%TF.GenerationSoftware,Altium Limited,Altium Designer,25.8.1 (18)*%
G04 Layer_Physical_Order=4*
G04 Layer_Color=16711680*
%FSLAX45Y45*%
%MOMM*%
%TF.SameCoordinates,76DCEA97-4B54-4C89-B6FC-6677598EF636*%
%TF.FilePolarity,Positive*%
%TF.FileFunction,Copper,L4,Bot,Signal*%
%TF.Part,Single*%
G01*
G75*
%TA.AperFunction,Conductor*%
%ADD24C,0.25400*%
%TA.AperFunction,ComponentPad*%
%ADD25C,1.60000*%
G04:AMPARAMS|DCode=26|XSize=1.6mm|YSize=1.6mm|CornerRadius=0.4mm|HoleSize=0mm|Usage=FLASHONLY|Rotation=270.000|XOffset=0mm|YOffset=0mm|HoleType=Round|Shape=RoundedRectangle|*
%AMROUNDEDRECTD26*
21,1,1.60000,0.80000,0,0,270.0*
21,1,0.80000,1.60000,0,0,270.0*
1,1,0.80000,-0.40000,-0.40000*
1,1,0.80000,-0.40000,0.40000*
1,1,0.80000,0.40000,0.40000*
1,1,0.80000,0.40000,-0.40000*
%
%ADD26ROUNDEDRECTD26*%
%TA.AperFunction,ViaPad*%
%ADD27C,1.27000*%
D24*
X4762500Y7581900D02*
X5295900D01*
X5317500Y7560300D01*
Y6036300D02*
Y7560300D01*
Y6036300D02*
X5435600Y5918200D01*
X4610100Y3695700D02*
X5435600Y2870200D01*
X4610100Y3695700D02*
Y5452658D01*
X4533900Y5528858D02*
X4610100Y5452658D01*
X4533900Y5528858D02*
Y5613400D01*
X4229100Y5918200D02*
X4533900Y5613400D01*
X4229100Y5918200D02*
Y6731000D01*
X4660900Y3793316D02*
X5317500Y3136716D01*
X4660900Y3793316D02*
Y5473700D01*
X4584700Y5549900D02*
Y6121400D01*
Y5549900D02*
X4660900Y5473700D01*
X4356100Y6350000D02*
Y6375400D01*
Y6350000D02*
X4584700Y6121400D01*
X5317500Y3136716D02*
X5423084D01*
X5435600Y3124200D01*
X5215900Y5629900D02*
X5435600Y5410200D01*
X5012700Y4817100D02*
Y6718300D01*
X5114300Y5223500D02*
Y7035800D01*
X5215900Y5629900D02*
Y7251700D01*
X4961900Y4359900D02*
Y6551021D01*
X5063500Y5020300D02*
Y6921500D01*
X5165100Y5426700D02*
Y7162800D01*
Y5426700D02*
X5435600Y5156200D01*
X4851400Y3962400D02*
Y6197600D01*
X4902200Y4165600D02*
Y6337300D01*
X4548592Y6254750D02*
X4794250D01*
X4470400Y6332942D02*
Y6488654D01*
Y6332942D02*
X4548592Y6254750D01*
X4794250D02*
X4851400Y6197600D01*
X4432300Y6526754D02*
Y6731000D01*
Y6526754D02*
X4470400Y6488654D01*
X4851400Y3962400D02*
X5435600Y3378200D01*
X4902200Y4165600D02*
X5435600Y3632200D01*
X4864100Y6375400D02*
X4902200Y6337300D01*
X4584700Y6375400D02*
X4864100D01*
X4961900Y4359900D02*
X5435600Y3886200D01*
X4947021Y6565900D02*
X4961900Y6551021D01*
X4910916Y6565900D02*
X4947021D01*
X4762500Y6714316D02*
X4910916Y6565900D01*
X4677584Y6714316D02*
X4762500D01*
X4660900Y6731000D02*
X4677584Y6714316D01*
X5012700Y4817100D02*
X5435600Y4394200D01*
X4864100Y6756400D02*
X4974600D01*
X5012700Y6718300D01*
X5063500Y5020300D02*
X5435600Y4648200D01*
X5266700Y5833100D02*
Y7391400D01*
X5114300Y5223500D02*
X5435600Y4902200D01*
X5266700Y5833100D02*
X5435600Y5664200D01*
X5038100Y6946900D02*
X5063500Y6921500D01*
X4864100Y6946900D02*
X5038100D01*
X5076200Y7073900D02*
X5114300Y7035800D01*
X4749800Y7073900D02*
X5076200D01*
X5127000Y7200900D02*
X5165100Y7162800D01*
X4864100Y7200900D02*
X5127000D01*
X5139700Y7327900D02*
X5215900Y7251700D01*
X4762500Y7327900D02*
X5139700D01*
X5203200Y7454900D02*
X5266700Y7391400D01*
X4864100Y7454900D02*
X5203200D01*
X5435600Y6172200D02*
X5553700Y6290300D01*
Y7654300D01*
X5499100Y7708900D02*
X5553700Y7654300D01*
X4864100Y7708900D02*
X5499100D01*
X3962400Y6654800D02*
X4038600Y6731000D01*
X3962400Y6307916D02*
Y6654800D01*
X3902884Y6248400D02*
X3962400Y6307916D01*
X3835400Y6248400D02*
X3902884D01*
X3784600Y6197600D02*
X3835400Y6248400D01*
X3784600Y5511800D02*
Y6197600D01*
X3606800Y5334000D02*
X3784600Y5511800D01*
X3606800Y3835400D02*
Y5334000D01*
X2895600Y3124200D02*
X3606800Y3835400D01*
X3759200Y6350000D02*
X3860800D01*
X3733800Y6324600D02*
X3759200Y6350000D01*
X3733800Y5537200D02*
Y6324600D01*
X3556000Y5359400D02*
X3733800Y5537200D01*
X3556000Y4038600D02*
Y5359400D01*
X2895600Y3378200D02*
X3556000Y4038600D01*
X3403600Y4902200D02*
Y5727700D01*
X2895600Y3632200D02*
X3505200Y4241800D01*
Y5384800D01*
X3454400Y4445000D02*
Y5410200D01*
X2895600Y3886200D02*
X3454400Y4445000D01*
X2895600Y4394200D02*
X3403600Y4902200D01*
X3683000Y6680200D02*
X3733800Y6731000D01*
X3683000Y5562600D02*
Y6680200D01*
X3505200Y5384800D02*
X3683000Y5562600D01*
X3632200Y5588000D02*
Y5740400D01*
X3454400Y5410200D02*
X3632200Y5588000D01*
X3251200Y5511800D02*
Y5790826D01*
X3302000Y5308600D02*
Y5769784D01*
X2895600Y4902200D02*
X3302000Y5308600D01*
X3073400Y5003800D02*
X3352800Y5283200D01*
Y5748742D01*
X2895600Y5156200D02*
X3251200Y5511800D01*
X3733800Y6731000D02*
X3835400D01*
X3581400Y5791200D02*
X3632200Y5740400D01*
X3581400Y5791200D02*
Y6350000D01*
X3403600Y5727700D02*
X3454400Y5778500D01*
Y6781800D01*
X3492500Y6819900D01*
X3619500D01*
X2895600Y4648200D02*
X3073400Y4826000D01*
Y5003800D01*
X3352800Y5748742D02*
X3403600Y5799542D01*
X2895600Y5410200D02*
X3200400Y5715000D01*
X3251200Y5862667D02*
Y7264400D01*
X3302000Y5769784D02*
X3352800Y5820584D01*
Y7035800D01*
X3200400Y5811867D02*
X3251200Y5862667D01*
X3302000Y5841626D02*
Y7173321D01*
X3251200Y5790826D02*
X3302000Y5841626D01*
X3403600Y5799542D02*
Y6870393D01*
X3200400Y5715000D02*
Y5811867D01*
X2895600Y6172200D02*
X3073400Y6350000D01*
X2895600Y5664200D02*
X3187700Y5956300D01*
Y7327900D01*
X2895600Y5918200D02*
X3124200Y6146800D01*
X3073400Y6350000D02*
Y7581900D01*
X3124200Y6146800D02*
Y7505700D01*
X3403600Y6870393D02*
X3479968Y6946761D01*
X3390900Y7073900D02*
X3619500D01*
X3352800Y7035800D02*
X3390900Y7073900D01*
X3302000Y7173321D02*
X3316879Y7188200D01*
X3479800D01*
X3276600Y7289800D02*
X3619500D01*
X3251200Y7264400D02*
X3276600Y7289800D01*
X3251200Y7391400D02*
X3479800D01*
X3187700Y7327900D02*
X3251200Y7391400D01*
X3124200Y7505700D02*
X3149600Y7531100D01*
X3594100D01*
X3162300Y7670800D02*
X3479800D01*
X3073400Y7581900D02*
X3162300Y7670800D01*
X3898900Y3251200D02*
X4013200D01*
X3873500Y3225800D02*
X3898900Y3251200D01*
X3873500Y3062879D02*
Y3225800D01*
X3858621Y3048000D02*
X3873500Y3062879D01*
X3543300Y3048000D02*
X3858621D01*
X3365500Y2870200D02*
X3543300Y3048000D01*
X2895600Y2870200D02*
X3365500D01*
D25*
X2895600Y4140200D02*
D03*
X5435600Y5918200D02*
D03*
Y4648200D02*
D03*
Y5156200D02*
D03*
Y4902200D02*
D03*
Y5410200D02*
D03*
Y5664200D02*
D03*
Y6426200D02*
D03*
Y6934200D02*
D03*
Y7188200D02*
D03*
Y6680200D02*
D03*
Y6172200D02*
D03*
Y3632200D02*
D03*
Y4140200D02*
D03*
Y3886200D02*
D03*
Y4394200D02*
D03*
Y3124200D02*
D03*
Y2870200D02*
D03*
Y3378200D02*
D03*
X2895600Y4648200D02*
D03*
Y5156200D02*
D03*
Y4902200D02*
D03*
Y5410200D02*
D03*
Y5664200D02*
D03*
Y5918200D02*
D03*
Y6426200D02*
D03*
Y6934200D02*
D03*
Y7188200D02*
D03*
Y6680200D02*
D03*
Y6172200D02*
D03*
Y3632200D02*
D03*
Y3886200D02*
D03*
Y4394200D02*
D03*
Y3124200D02*
D03*
Y2870200D02*
D03*
Y3378200D02*
D03*
D26*
X5435600Y7442200D02*
D03*
X2895600D02*
D03*
D27*
X4749800Y2857500D02*
D03*
X3519892Y5700308D02*
D03*
X4343400Y5994400D02*
D03*
X4152900Y7874000D02*
D03*
X4762500Y7581900D02*
D03*
X3543300Y2857500D02*
D03*
X4711700Y5600700D02*
D03*
X4660900Y6731000D02*
D03*
X4584700Y6375400D02*
D03*
X4432300Y6731000D02*
D03*
X4356100Y6375400D02*
D03*
X4229100Y6731000D02*
D03*
X4864100Y6756400D02*
D03*
Y6946900D02*
D03*
X4749800Y7073900D02*
D03*
X4864100Y7200900D02*
D03*
X4762500Y7327900D02*
D03*
X4864100Y7454900D02*
D03*
Y7708900D02*
D03*
X4038600Y6731000D02*
D03*
X3860800Y6350000D02*
D03*
X3835400Y6731000D02*
D03*
X3581400Y6350000D02*
D03*
X3479968Y6946761D02*
D03*
X3619500Y6819900D02*
D03*
Y7073900D02*
D03*
X3479800Y7188200D02*
D03*
X3619500Y7289800D02*
D03*
X3479800Y7391400D02*
D03*
X3594100Y7531100D02*
D03*
X3479800Y7670800D02*
D03*
X4775200Y3822700D02*
D03*
X4013200Y4673600D02*
D03*
Y3251200D02*
D03*
%TF.MD5,a8cb873f57fad0531e4547746fe33741*%
M02*
